HIERARCHY
ROOT Hips
{
	OFFSET 0.000000 0.000000 0.000000
	CHANNELS 6 Xposition Yposition Zposition Zrotation Yrotation Xrotation 
	JOINT LHipJoint
	{
		OFFSET 0.000000 0.000000 0.000000
		CHANNELS 3 Zrotation Yrotation Xrotation
		JOINT LeftUpLeg
		{
			OFFSET 1.363060 -1.794630 0.839290
			CHANNELS 3 Zrotation Yrotation Xrotation
			JOINT LeftLeg
			{
				OFFSET 2.448110 -6.726130 0.000000
				CHANNELS 3 Zrotation Yrotation Xrotation
				JOINT LeftFoot
				{
					OFFSET 2.562200 -7.039590 0.000000
					CHANNELS 3 Zrotation Yrotation Xrotation
					JOINT LeftToeBase
					{
						OFFSET 0.157640 -0.433110 2.322550
						CHANNELS 3 Zrotation Yrotation Xrotation
						End Site
						{
							OFFSET 0.000000 0.000000 0.000000
						}
					}
				}
			}
		}
	}
	JOINT RHipJoint
	{
		OFFSET 0.000000 0.000000 0.000000
		CHANNELS 3 Zrotation Yrotation Xrotation
		JOINT RightUpLeg
		{
			OFFSET -1.305520 -1.794630 0.839290
			CHANNELS 3 Zrotation Yrotation Xrotation
			JOINT RightLeg
			{
				OFFSET -2.542530 -6.985550 0.000000
				CHANNELS 3 Zrotation Yrotation Xrotation
				JOINT RightFoot
				{
					OFFSET -2.568260 -7.056230 0.000000
					CHANNELS 3 Zrotation Yrotation Xrotation
					JOINT RightToeBase
					{
						OFFSET -0.164730 -0.452590 2.363150
						CHANNELS 3 Zrotation Yrotation Xrotation
						End Site
						{
							OFFSET 0.000000 0.000000 0.000000
						}
					}
				}
			}
		}
	}
	JOINT LowerBack
	{
		OFFSET 0.000000 0.000000 0.000000
		CHANNELS 3 Zrotation Yrotation Xrotation
		JOINT Spine
		{
			OFFSET 0.028270 2.035590 -0.193380
			CHANNELS 3 Zrotation Yrotation Xrotation
			JOINT Spine1
			{
				OFFSET 0.056720 2.048850 -0.042750
				CHANNELS 3 Zrotation Yrotation Xrotation
				JOINT Neck
				{
					OFFSET 0.000000 0.000000 0.000000
					CHANNELS 3 Zrotation Yrotation Xrotation
					JOINT Neck1
					{
						OFFSET -0.054170 1.746240 0.172020
						CHANNELS 3 Zrotation Yrotation Xrotation
						JOINT Head
						{
							OFFSET 0.104070 1.761360 -0.123970
							CHANNELS 3 Zrotation Yrotation Xrotation
							End Site
							{
								OFFSET 0.000000 0.000000 0.000000
							}
						}
					}
				}
				JOINT LeftShoulder
				{
					OFFSET 0.000000 0.000000 0.000000
					CHANNELS 3 Zrotation Yrotation Xrotation
					JOINT LeftArm
					{
						OFFSET 3.362410 1.200890 -0.311210
						CHANNELS 3 Zrotation Yrotation Xrotation
						JOINT LeftForeArm
						{
							OFFSET 4.983000 -0.000000 -0.000000
							CHANNELS 3 Zrotation Yrotation Xrotation
							JOINT LeftHand
							{
								OFFSET 3.483560 -0.000000 -0.000000
								CHANNELS 3 Zrotation Yrotation Xrotation
								JOINT LeftFingerBase
								{
									OFFSET 0.000000 0.000000 0.000000
									CHANNELS 3 Zrotation Yrotation Xrotation
									JOINT LeftHandIndex1
									{
										OFFSET 0.715260 -0.000000 -0.000000
										CHANNELS 3 Zrotation Yrotation Xrotation
										End Site
										{
											OFFSET 0.000000 0.000000 0.000000
										}
									}
								}
								JOINT LThumb
								{
									OFFSET 0.000000 0.000000 0.000000
									CHANNELS 3 Zrotation Yrotation Xrotation
									End Site
									{
										OFFSET 0.000000 0.000000 0.000000
									}
								}
							}
						}
					}
				}
				JOINT RightShoulder
				{
					OFFSET 0.000000 0.000000 0.000000
					CHANNELS 3 Zrotation Yrotation Xrotation
					JOINT RightArm
					{
						OFFSET -3.136600 1.374050 -0.404650
						CHANNELS 3 Zrotation Yrotation Xrotation
						JOINT RightForeArm
						{
							OFFSET -5.241900 -0.000000 -0.000000
							CHANNELS 3 Zrotation Yrotation Xrotation
							JOINT RightHand
							{
								OFFSET -3.444170 -0.000000 -0.000000
								CHANNELS 3 Zrotation Yrotation Xrotation
								JOINT RightFingerBase
								{
									OFFSET 0.000000 0.000000 0.000000
									CHANNELS 3 Zrotation Yrotation Xrotation
									JOINT RightHandIndex1
									{
										OFFSET -0.622530 -0.000000 -0.000000
										CHANNELS 3 Zrotation Yrotation Xrotation
										End Site
										{
											OFFSET 0.000000 0.000000 0.000000
										}
									}
								}
								JOINT RThumb
								{
									OFFSET 0.000000 0.000000 0.000000
									CHANNELS 3 Zrotation Yrotation Xrotation
									End Site
									{
										OFFSET 0.000000 0.000000 0.000000
									}
								}
							}
						}
					}
				}
			}
		}
	}
}
MOTION
Frames: 4
Frame Time: 0.008333
21.641764 15.731162 1.982299 149.813745 -86.874935 -107.197656 -6.461737 -1.081240 2.642789 -9.498182 -14.203019 -77.729994 -1.298185 2.341907 46.977801 2.886384 9.156510 -14.725254 -0.561700 -0.000000 -27.314200 12.702909 -1.202659 -2.995662 4.976459 -2.748092 -22.560581 -0.222992 -2.885300 47.785881 -2.910880 -16.017044 2.958804 -3.279900 0.000000 -49.118800 -8.964097 1.569858 4.027400 -3.158409 1.796231 -2.016039 -5.564643 1.728725 0.298621 4.508098 6.177643 4.052270 -3.362606 -0.359089 2.542062 0.000000 0.000000 0.000000 -2.402675 0.426397 2.927964 -44.347029 9.148103 -1.511350 -3.988946 -2.490954 -0.011223 1.566227 4.662559 0.069136 -0.134737 -0.002104 -0.000000 0.000000 0.000000 0.000000 0.000000 0.000000 0.000000 11.249215 7.843185 -2.500098 80.995643 40.796348 28.679870 1.052329 59.128304 -0.007171 -0.751236 12.785058 -0.085161 -0.012321 -0.399524 -0.000000 0.000000 0.000000 0.000000 0.000000 0.000000 0.000000 
21.439113 15.622936 1.991843 147.965396 -86.863759 -105.633713 -6.440305 -1.182003 2.303472 -9.918812 -14.216823 -78.031011 -1.074820 2.629298 50.446657 2.964056 9.352681 -16.086492 -0.888900 0.000000 -25.695400 12.820775 -1.114613 -3.157201 4.771758 -2.976836 -23.371174 -0.326563 -3.136649 51.051337 -2.951528 -16.171433 1.138599 -2.811700 -0.000000 -47.703700 -9.089553 1.553480 4.542758 -3.210337 1.767729 -1.924959 -5.667028 1.701335 0.180661 4.600729 6.602767 4.143035 -3.477896 -0.365012 2.549120 0.000000 0.000000 0.000000 -2.799729 -0.035338 2.997555 -44.070369 9.114416 0.479311 -4.068629 -3.206118 -0.011536 0.805198 4.852224 0.039643 -0.133197 -0.003068 -0.000000 0.000000 0.000000 0.000000 0.000000 0.000000 0.000000 11.910416 8.194666 -2.391304 80.286617 40.635930 27.549444 0.998570 58.886894 -0.009951 -1.135289 12.956904 -0.131281 -0.012412 -0.403469 -0.000000 0.000000 0.000000 0.000000 0.000000 0.000000 0.000000 
21.237754 15.520612 2.000487 145.513704 -86.840815 -103.488046 -6.408279 -1.250776 1.959629 -10.424347 -14.241281 -78.106507 -0.893778 2.876059 53.604340 3.046700 9.530153 -17.638561 -1.263100 0.000001 -24.388601 12.953635 -1.010647 -3.326339 4.529522 -3.183318 -24.200871 -0.443480 -3.390092 54.249448 -2.937847 -16.021745 -0.542795 -2.316900 -0.000000 -46.553499 -9.208794 1.548922 5.084269 -3.262882 1.748470 -1.827325 -5.775708 1.682942 0.066624 4.727524 7.043248 4.260621 -3.599402 -0.371290 2.561665 0.000000 0.000000 0.000000 -3.260664 -0.521406 3.061325 -43.724013 8.860879 2.386243 -4.144053 -3.807531 -0.011808 0.099954 4.998692 0.009951 -0.132167 -0.003031 -0.000000 0.000000 0.000000 0.000000 0.000000 0.000000 0.000000 12.626223 8.530164 -2.284371 79.550763 40.344038 26.232130 0.936554 58.549388 -0.013341 -1.630302 13.134689 -0.192104 -0.011646 -0.406975 -0.000000 0.000000 0.000000 0.000000 0.000000 0.000000 0.000000 
21.037048 15.425882 2.008577 142.597521 -86.801201 -100.891556 -6.372230 -1.285220 1.617127 -11.001936 -14.274468 -77.951886 -0.753867 3.085228 56.420256 3.137062 9.699956 -19.341624 -1.677000 -0.000000 -23.431799 13.094425 -0.889853 -3.499246 4.260690 -3.359972 -25.062723 -0.574192 -3.641961 57.366949 -2.877250 -15.612347 -2.083122 -1.831200 0.000001 -45.616800 -9.319264 1.558118 5.640456 -3.314223 1.740670 -1.725292 -5.887116 1.675577 -0.040531 4.886698 7.495090 4.403111 -3.724388 -0.377734 2.579613 0.000000 0.000000 0.000000 -3.773914 -1.024068 3.118868 -43.337627 8.352673 4.085066 -4.212260 -4.251869 -0.011998 -0.514402 5.102370 -0.017239 -0.131640 -0.001592 -0.000000 0.000000 0.000000 0.000000 0.000000 0.000000 0.000000 13.382011 8.844178 -2.180961 78.793877 39.913461 24.734253 0.866237 58.105552 -0.017318 -2.230301 13.317766 -0.267229 -0.010150 -0.409792 -0.000000 0.000000 0.000000 0.000000 0.000000 0.000000 0.000000 
